<?xml version="1.0" standalone="no"?>
<!DOCTYPE svg PUBLIC "-//W3C//DTD SVG 20010904//EN"
 "http://www.w3.org/TR/2001/REC-SVG-20010904/DTD/svg10.dtd">
<svg version="1.0" xmlns="http://www.w3.org/2000/svg"
 width="220.000000pt" height="293.000000pt" viewBox="0 0 220.000000 293.000000"
 preserveAspectRatio="xMidYMid meet">

<g transform="translate(0.000000,293.000000) scale(0.100000,-0.100000)"
fill="#000000" stroke="none">
<path d="M400 2745 l-95 -95 95 -95 95 -95 375 0 375 0 95 95 95 95 -95 95
-95 95 -375 0 -375 0 -95 -95z m920 -10 l85 -85 -85 -85 -85 -85 -365 0 -365
0 -85 85 -85 85 85 85 85 85 365 0 365 0 85 -85z"/>
<path d="M863 2733 c-18 -32 -46 -82 -63 -110 -26 -46 -28 -53 -13 -53 10 0
26 14 35 30 15 26 22 30 63 30 43 0 45 -1 45 -30 0 -20 5 -30 15 -30 18 0 18
16 5 96 -6 32 -13 74 -16 92 -8 50 -34 41 -71 -25z m51 -35 l7 -48 -30 0 c-17
0 -31 5 -31 11 0 9 43 90 46 86 1 -1 5 -23 8 -49z"/>
<path d="M172 2517 l-92 -92 0 -370 0 -370 98 -98 97 -97 98 98 97 97 0 370 0
370 -93 93 c-51 50 -97 92 -102 92 -6 0 -52 -42 -103 -93z m196 -21 l82 -84 0
-358 0 -359 -87 -87 -88 -88 -87 87 -88 88 0 360 0 360 82 82 c46 46 87 83 94
83 6 0 47 -38 92 -84z"/>
<path d="M192 2067 c-26 -123 -26 -117 -8 -117 8 0 17 14 21 33 13 67 13 66
72 69 78 4 85 28 9 28 -58 0 -62 3 -50 48 6 19 13 22 60 22 29 0 56 5 59 10 4
6 -21 10 -68 10 l-74 0 -21 -103z"/>
<path d="M1362 2517 l-92 -92 0 -370 0 -370 98 -98 97 -97 98 98 97 97 0 370
0 370 -93 93 c-51 50 -97 92 -102 92 -6 0 -52 -42 -103 -93z m195 -19 l83 -83
0 -360 0 -360 -87 -87 -88 -88 -87 87 -88 88 0 360 0 360 82 82 c46 46 87 83
93 83 5 0 47 -37 92 -82z"/>
<path d="M1381 2080 c-11 -56 -21 -105 -21 -110 0 -6 31 -10 69 -10 63 0 71 2
90 26 25 32 27 57 5 75 -14 11 -14 13 0 21 10 6 16 23 16 43 0 42 -20 55 -88
55 l-49 0 -22 -100z m132 58 c10 -28 -13 -48 -53 -48 -35 0 -40 3 -40 23 0 13
3 27 7 30 12 12 81 7 86 -5z m-10 -100 c17 -27 -9 -48 -59 -48 -46 0 -54 12
-38 55 9 22 83 17 97 -7z"/>
<path d="M403 1566 l-98 -95 100 -100 100 -101 365 0 365 0 98 98 97 97 -98
98 -97 97 -367 0 -368 0 -97 -94z m910 -14 l87 -87 -88 -88 -87 -87 -355 0
-355 0 -90 91 -90 90 90 84 90 84 355 1 355 0 88 -88z"/>
<path d="M824 1556 c-46 -46 -51 -121 -11 -164 19 -21 29 -23 75 -20 61 5 78
19 87 71 l7 37 -51 0 c-28 0 -51 -4 -51 -10 0 -5 14 -10 30 -10 25 0 30 -4 30
-24 0 -35 -60 -55 -95 -32 -21 14 -25 25 -25 62 0 84 84 135 128 79 22 -27 42
-33 42 -12 0 31 -40 57 -86 57 -39 0 -51 -5 -80 -34z"/>
<path d="M177 1342 l-97 -97 0 -370 0 -370 98 -98 97 -97 98 98 97 97 0 370 0
370 -98 98 -97 97 -98 -98z m273 -467 l0 -360 -88 -88 -87 -87 -88 88 -87 87
0 360 0 360 87 87 88 88 87 -87 88 -88 0 -360z"/>
<path d="M215 998 c-7 -19 -45 -196 -45 -208 0 -16 162 -8 168 8 3 9 -14 12
-62 12 -71 0 -74 3 -60 58 6 20 12 22 70 22 36 0 64 4 64 10 0 6 -27 10 -60
10 -63 0 -66 3 -54 48 6 20 12 22 70 22 50 0 64 3 64 15 0 12 -15 15 -75 15
-52 0 -77 -4 -80 -12z"/>
<path d="M1367 1342 l-97 -97 0 -370 0 -370 98 -98 97 -97 98 98 97 97 0 370
0 370 -98 98 -97 97 -98 -98z m273 -467 l0 -360 -88 -88 -87 -87 -88 88 -87
87 0 360 0 360 87 87 88 88 87 -87 88 -88 0 -360z"/>
<path d="M1409 979 c-47 -51 -51 -143 -6 -174 34 -24 94 -19 122 10 25 24 33
55 16 55 -5 0 -16 -11 -25 -25 -19 -29 -56 -41 -84 -26 -47 25 -34 129 18 156
40 21 56 19 78 -10 20 -25 42 -33 42 -16 0 4 -9 20 -21 35 -17 21 -29 26 -66
26 -37 0 -50 -5 -74 -31z"/>
<path d="M1865 520 c-108 -16 -179 -101 -180 -216 0 -126 102 -220 232 -212
49 3 72 10 105 34 50 34 98 119 98 172 0 140 -117 242 -255 222z m118 -36 c42
-21 75 -52 93 -86 18 -35 19 -57 2 -40 -7 7 -35 12 -63 12 l-52 0 -16 -75
c-20 -91 -21 -98 -4 -93 6 3 14 18 17 34 4 24 11 30 35 32 61 5 76 13 91 45
l15 32 -4 -47 c-13 -144 -156 -229 -283 -168 -51 25 -97 87 -108 145 -14 74
32 168 102 205 46 24 131 26 175 4z m77 -152 c0 -27 -20 -42 -58 -42 -27 0
-33 3 -28 16 3 9 6 22 6 30 0 10 12 14 40 14 32 0 40 -4 40 -18z"/>
<path d="M1787 363 c-3 -5 -10 -35 -17 -68 -6 -33 -14 -68 -16 -77 -5 -16 2
-18 51 -18 47 0 60 4 79 25 37 40 38 115 3 137 -16 10 -94 10 -100 1z m91 -25
c18 -18 14 -62 -9 -92 -15 -19 -30 -26 -55 -26 -29 0 -34 3 -30 18 3 9 8 35
12 57 4 22 9 43 11 48 7 11 58 8 71 -5z"/>
<path d="M400 375 l-95 -95 95 -95 95 -95 375 0 375 0 95 95 95 95 -95 95 -95
95 -375 0 -375 0 -95 -95z m920 -10 l85 -85 -85 -85 -85 -85 -365 0 -365 0
-85 85 -85 85 85 85 85 85 365 0 365 0 85 -85z"/>
<path d="M796 313 c-10 -49 -20 -98 -23 -110 -5 -22 -2 -23 47 -23 97 0 150
47 150 132 0 64 -28 88 -102 88 l-55 0 -17 -87z m130 46 c17 -14 18 -72 2
-102 -17 -34 -39 -46 -80 -47 -44 0 -44 0 -22 100 l17 72 34 -5 c19 -4 41 -11
49 -18z"/>
</g>
</svg>
