<?xml version="1.0" standalone="no"?>
<!DOCTYPE svg PUBLIC "-//W3C//DTD SVG 20010904//EN" "http://www.w3.org/TR/2001/REC-SVG-20010904/DTD/svg10.dtd">
<svg version="1.0" xmlns="http://www.w3.org/2000/svg"
  width="220.000000pt" height="293.000000pt" viewBox="0 0 220.000000 293.000000"
  preserveAspectRatio="xMidYMid meet">

  <g transform="translate(0.000000,293.000000) scale(0.100000,-0.100000)"
    fill="#000000" stroke="none">
    <path
      d="M400 2745 l-95 -95 95 -95 95 -95 375 0 375 0 95 95 95 95 -95 95
-95 95 -375 0 -375 0 -95 -95z m920 -10 l85 -85 -85 -85 -85 -85 -365 0 -365
0 -85 85 -85 85 85 85 85 85 365 0 365 0 85 -85z" />
    <path
      d="M172 2517 l-92 -92 0 -370 0 -370 98 -98 97 -97 98 98 97 97 0 370 0
370 -93 93 c-51 50 -97 92 -102 92 -6 0 -52 -42 -103 -93z m196 -21 l82 -84 0
-358 0 -359 -87 -87 -88 -88 -87 87 -88 88 0 360 0 360 82 82 c46 46 87 83 94
83 6 0 47 -38 92 -84z" />
    <path
      d="M1362 2517 l-92 -92 0 -370 0 -370 98 -98 97 -97 98 98 97 97 0 370
0 370 -93 93 c-51 50 -97 92 -102 92 -6 0 -52 -42 -103 -93z m195 -19 l83 -83
0 -360 0 -360 -87 -87 -88 -88 -87 87 -88 88 0 360 0 360 82 82 c46 46 87 83
93 83 5 0 47 -37 92 -82z" />
    <path
      d="M403 1566 l-98 -95 100 -100 100 -101 365 0 365 0 98 98 97 97 -98
98 -97 97 -367 0 -368 0 -97 -94z m910 -14 l87 -87 -88 -88 -87 -87 -355 0
-355 0 -90 91 -90 90 90 84 90 84 355 1 355 0 88 -88z" />
    <path
      d="M177 1342 l-97 -97 0 -370 0 -370 98 -98 97 -97 98 98 97 97 0 370 0
370 -98 98 -97 97 -98 -98z m273 -467 l0 -360 -88 -88 -87 -87 -88 88 -87 87
0 360 0 360 87 87 88 88 87 -87 88 -88 0 -360z" />
    <path
      d="M1367 1342 l-97 -97 0 -370 0 -370 98 -98 97 -97 98 98 97 97 0 370
0 370 -98 98 -97 97 -98 -98z m273 -467 l0 -360 -88 -88 -87 -87 -88 88 -87
87 0 360 0 360 87 87 88 88 87 -87 88 -88 0 -360z" />
    <path
      d="M400 375 l-95 -95 95 -95 95 -95 375 0 375 0 95 95 95 95 -95 95 -95
95 -375 0 -375 0 -95 -95z m920 -10 l85 -85 -85 -85 -85 -85 -365 0 -365 0
-85 85 -85 85 85 85 85 85 365 0 365 0 85 -85z" />
  </g>
</svg>
